<?xml version="1.0"?>
<svg xmlns="http://www.w3.org/2000/svg" xmlns:xlink="http://www.w3.org/1999/xlink" version="1.1" id="Capa_1" x="0px" y="0px" viewBox="0 0 458.85 458.85" style="enable-background:new 0 0 458.85 458.85;" xml:space="preserve" width="512px" height="512px" class=""><g transform="matrix(6.12323e-17 1 -1 6.12323e-17 458.85 0)"><g>
	<path style="fill:#639CA0" d="M346.188,220.087l84.662-84.662l-84.662-84.662v38.336v16H164.991   c-50.811,0-98.812,21.777-132.244,59.189h313.441v16V220.087z" data-original="#4479FA" class="active-path" data-old_color="#649DA1"/>
	<path style="fill:#639CA0" d="M112.662,294.561v-39.798l-89.491,79.833l89.491,89.491v-16.168v-38.168h181.197   c50.814,0,98.825-21.774,132.258-59.189H112.662V294.561L112.662,294.561z" data-original="#4479FA" class="active-path" data-old_color="#649DA1"/>
	<path style="fill:#83B6BB" d="M346.188,34.763l92.662,92.662l-92.662,92.662v-55.798H20   c33.232-47.145,87.311-75.189,144.991-75.189h181.197L346.188,34.763 M346.184,14.762c-2.576,0-5.175,0.498-7.649,1.523   c-7.474,3.095-12.346,10.388-12.346,18.478l0,34.336H164.991c-64.096,0-124.41,31.277-161.338,83.666   c-4.303,6.105-4.846,14.099-1.408,20.73c3.439,6.631,10.285,10.793,17.755,10.793h306.188v35.798   c0,8.089,4.873,15.382,12.346,18.478c2.474,1.025,5.073,1.523,7.649,1.523c5.205,0,10.32-2.032,14.147-5.859l92.662-92.662   c7.81-7.811,7.81-20.474,0-28.284L360.33,20.621C356.504,16.795,351.389,14.762,346.184,14.762L346.184,14.762z" data-original="#2C3D8E" class="" data-old_color="#A8E0E9"/>
	<path style="fill:#83B6BB" d="M112.662,238.763v55.798H438.85c-33.232,47.145-87.311,75.189-144.991,75.189H112.662v54.336   L20,331.425L112.662,238.763 M112.666,218.762c-5.205,0-10.32,2.032-14.147,5.859L5.858,317.283c-7.81,7.811-7.81,20.474,0,28.284   l92.662,92.662c3.826,3.826,8.942,5.859,14.147,5.859c2.577,0,5.175-0.498,7.649-1.523c7.474-3.095,12.346-10.388,12.346-18.478   v-34.336h161.197c64.096,0,124.41-31.277,161.338-83.667c4.303-6.105,4.846-14.099,1.408-20.73   c-3.439-6.631-10.285-10.793-17.755-10.793H132.662v-35.798c0-8.089-4.873-15.382-12.346-18.478   C117.841,219.261,115.242,218.762,112.666,218.762L112.666,218.762z" data-original="#2C3D8E" class="" data-old_color="#A8E0E9"/>
</g></g> </svg>
